<svg version="1.1" xmlns="http://www.w3.org/2000/svg" viewBox="0 0 418.7408870539732 477.39095050465403" width="418.7408870539732" height="477.39095050465403" filter="invert(93%) hue-rotate(180deg)">
  <!-- svg-source:excalidraw -->
  
  <defs>
    <style class="style-fonts">
      @font-face {
        font-family: "Virgil";
        src: url("https://excalidraw.com/Virgil.woff2");
      }
      @font-face {
        font-family: "Cascadia";
        src: url("https://excalidraw.com/Cascadia.woff2");
      }
      @font-face {
        font-family: "Assistant";
        src: url("https://excalidraw.com/Assistant-Regular.woff2");
      }
    </style>
    
  </defs>
  <rect x="0" y="0" width="418.7408870539732" height="477.39095050465403" fill="#ffffff"></rect><g stroke-linecap="round" transform="translate(10 36.33289577373489) rotate(0 163.43569007394046 215.52902736545957)"><path d="M32 0 C114 1.92, 198.29 2.6, 294.87 0 M32 0 C100.36 0.14, 168.31 -0.25, 294.87 0 M294.87 0 C314.87 0.38, 326.03 9.81, 326.87 32 M294.87 0 C316.45 -0.61, 327.58 8.65, 326.87 32 M326.87 32 C326.23 167.51, 324.89 305.6, 326.87 399.06 M326.87 32 C329.19 131.92, 328.45 231.21, 326.87 399.06 M326.87 399.06 C326.85 419.21, 316.92 431.33, 294.87 431.06 M326.87 399.06 C327.6 421.85, 314.52 432.82, 294.87 431.06 M294.87 431.06 C226.67 431.81, 154.61 429.38, 32 431.06 M294.87 431.06 C200.84 429.72, 107.84 430.49, 32 431.06 M32 431.06 C9.87 430.85, -1.6 422.11, 0 399.06 M32 431.06 C9.69 430.7, 0.22 419.63, 0 399.06 M0 399.06 C-1.75 286.98, -1.4 173.38, 0 32 M0 399.06 C1.98 286.73, 1.97 174.08, 0 32 M0 32 C0.74 9.93, 11.11 1.69, 32 0 M0 32 C1.31 9.4, 10.02 -0.61, 32 0" stroke="#1e1e1e" stroke-width="2" fill="none"></path></g><g transform="translate(141.66447886867354 10) rotate(0 33.989967346191406 12.5)"><text x="0" y="0" font-family="Virgil, Segoe UI Emoji" font-size="20px" fill="#1e1e1e" text-anchor="start" style="white-space: pre;" direction="ltr" dominant-baseline="text-before-edge">Memory</text></g><g stroke-linecap="round" transform="translate(29.463444702325432 49.499343660602335) rotate(0 146.54828952339335 50.08974739569112)"><path d="M25.04 0 C81.05 1.87, 134.1 0.33, 268.05 0 M25.04 0 C103.44 0.24, 181.94 0.35, 268.05 0 M268.05 0 C284.57 1.05, 294.8 8.79, 293.1 25.04 M268.05 0 C285.04 -2.23, 290.99 6.13, 293.1 25.04 M293.1 25.04 C293.11 45.58, 292.22 64.36, 293.1 75.13 M293.1 25.04 C293 38.77, 292.59 52.34, 293.1 75.13 M293.1 75.13 C294.52 90.39, 283.57 99.41, 268.05 100.18 M293.1 75.13 C294.2 90.64, 286.8 99.44, 268.05 100.18 M268.05 100.18 C199.2 99.55, 128 101.06, 25.04 100.18 M268.05 100.18 C202.24 99.25, 135.73 99.22, 25.04 100.18 M25.04 100.18 C9 100.11, -0.8 93.26, 0 75.13 M25.04 100.18 C9.78 100.61, -1.16 93.84, 0 75.13 M0 75.13 C-1.52 59.41, 0.27 42.68, 0 25.04 M0 75.13 C0.58 63.28, -0.19 52.07, 0 25.04 M0 25.04 C-1.08 10.11, 8.26 1.39, 25.04 0 M0 25.04 C1.71 10.33, 7.41 -1.07, 25.04 0" stroke="#1e1e1e" stroke-width="2" fill="none"></path></g><g transform="translate(48.491852023570345 87.08909105629346) rotate(0 127.51988220214844 12.5)"><text x="127.51988220214844" y="0" font-family="Virgil, Segoe UI Emoji" font-size="20px" fill="#1e1e1e" text-anchor="middle" style="white-space: pre;" direction="ltr" dominant-baseline="text-before-edge">Foo{ID: 23, Bar: "World"}</text></g><g stroke-linecap="round" transform="translate(28.89099044637487 287.3540870081397) rotate(0 146.54828952339335 50.08974739569112)"><path d="M25.04 0 C93.08 -1.25, 160.91 0.37, 268.05 0 M25.04 0 C105.7 -1.3, 187.13 0, 268.05 0 M268.05 0 C286.61 1.32, 294.56 8.26, 293.1 25.04 M268.05 0 C284.67 1.45, 294.38 10.2, 293.1 25.04 M293.1 25.04 C291.57 43.13, 291.7 63.22, 293.1 75.13 M293.1 25.04 C292.39 44.75, 293.44 65.18, 293.1 75.13 M293.1 75.13 C293.05 91.11, 286.73 98.98, 268.05 100.18 M293.1 75.13 C290.8 93.38, 283.91 100.9, 268.05 100.18 M268.05 100.18 C179.34 101.45, 94.28 101.6, 25.04 100.18 M268.05 100.18 C209.68 101.01, 150.5 101.4, 25.04 100.18 M25.04 100.18 C9.71 99.76, -0.63 91.23, 0 75.13 M25.04 100.18 C7.65 102.39, -0.02 93.42, 0 75.13 M0 75.13 C0.61 55.38, 1.32 36.35, 0 25.04 M0 75.13 C1.2 64.87, 0.49 52.44, 0 25.04 M0 25.04 C1.13 8.22, 9.22 -0.74, 25.04 0 M0 25.04 C0.97 8.47, 9.32 -2.02, 25.04 0" stroke="#1e1e1e" stroke-width="2" fill="none"></path></g><g transform="translate(81.72937243802994 324.9438344038308) rotate(0 93.70990753173828 12.5)"><text x="93.70990753173828" y="0" font-family="Virgil, Segoe UI Emoji" font-size="20px" fill="#1e1e1e" text-anchor="middle" style="white-space: pre;" direction="ltr" dominant-baseline="text-before-edge">Pointer In Function</text></g><g stroke-linecap="round"><g transform="translate(324.1981962930581 286.75710195466354) rotate(0 41.54252866838283 -92.8684376292465)"><path d="M0.87 -0.07 C14.66 -22.41, 82.03 -103.56, 82.26 -134.55 C82.49 -165.54, 15.51 -177.58, 2.27 -186.01 M-0.13 -1.16 C14.07 -23.83, 84.23 -105.94, 84.54 -136.55 C84.86 -167.17, 15.24 -176.37, 1.75 -184.83" stroke="#1e1e1e" stroke-width="2" fill="none"></path></g><g transform="translate(324.1981962930581 286.75710195466354) rotate(0 41.54252866838283 -92.8684376292465)"><path d="M26.75 -185.13 C20.04 -186.24, 13.97 -184, 1.75 -184.83 M26.75 -185.13 C18.97 -184.47, 13.01 -184.33, 1.75 -184.83" stroke="#1e1e1e" stroke-width="2" fill="none"></path></g><g transform="translate(324.1981962930581 286.75710195466354) rotate(0 41.54252866838283 -92.8684376292465)"><path d="M21.09 -168.99 C15.95 -174.39, 11.37 -176.41, 1.75 -184.83 M21.09 -168.99 C14.75 -172.84, 10.36 -177.18, 1.75 -184.83" stroke="#1e1e1e" stroke-width="2" fill="none"></path></g></g><mask></mask><g stroke-linecap="round" transform="translate(29.46344470232566 166.5662390025318) rotate(0 146.54828952339335 50.08974739569112)"><path d="M25.04 0 C77.5 -2.68, 131.19 -0.33, 268.05 0 M25.04 0 C100.76 1.76, 177.92 0.7, 268.05 0 M268.05 0 C284.29 -0.15, 293.23 6.76, 293.1 25.04 M268.05 0 C286.06 -0.75, 292.77 10.26, 293.1 25.04 M293.1 25.04 C293.13 35.66, 293.17 44.96, 293.1 75.13 M293.1 25.04 C293.86 35.94, 293 46.14, 293.1 75.13 M293.1 75.13 C292.48 91.43, 283.41 100.81, 268.05 100.18 M293.1 75.13 C295.2 92.46, 285.43 101.89, 268.05 100.18 M268.05 100.18 C207.08 100.51, 141.84 101.87, 25.04 100.18 M268.05 100.18 C204.58 98.85, 140.57 98.48, 25.04 100.18 M25.04 100.18 C9.45 102.06, -1.74 92.2, 0 75.13 M25.04 100.18 C8.22 100.65, 1.46 90.91, 0 75.13 M0 75.13 C-0.23 63.2, 1.84 48.29, 0 25.04 M0 75.13 C-1 60.11, 0.51 43.91, 0 25.04 M0 25.04 C-0.78 6.86, 10.25 -0.55, 25.04 0 M0 25.04 C0.47 8.38, 9.13 -1.79, 25.04 0" stroke="#1e1e1e" stroke-width="2" fill="none"></path></g><g transform="translate(38.54188559290651 204.15598639822292) rotate(0 137.4698486328125 12.5)"><text x="137.4698486328125" y="0" font-family="Virgil, Segoe UI Emoji" font-size="20px" fill="#1e1e1e" text-anchor="middle" style="white-space: pre;" direction="ltr" dominant-baseline="text-before-edge">Pointer Passed To Function</text></g><g stroke-linecap="round"><g transform="translate(325.9947492848164 216.65598639822338) rotate(0 20.035898958276448 -57.24542559507563)"><path d="M-0.43 0.9 C6.23 -7.87, 39.9 -32.87, 40.37 -52.15 C40.83 -71.43, 8.72 -104.47, 2.36 -114.76 M1.54 0.33 C8.03 -8.28, 39.56 -31.66, 39.58 -50.64 C39.59 -69.63, 7.82 -102.67, 1.63 -113.58" stroke="#1e1e1e" stroke-width="2" fill="none"></path></g><g transform="translate(325.9947492848164 216.65598639822338) rotate(0 20.035898958276448 -57.24542559507563)"><path d="M22.46 -99.75 C16.93 -103.97, 8.34 -108.98, 1.63 -113.58 M22.46 -99.75 C17.14 -102.75, 10.72 -107.45, 1.63 -113.58" stroke="#1e1e1e" stroke-width="2" fill="none"></path></g><g transform="translate(325.9947492848164 216.65598639822338) rotate(0 20.035898958276448 -57.24542559507563)"><path d="M8.7 -89.6 C7.74 -97.17, 3.77 -105.59, 1.63 -113.58 M8.7 -89.6 C7.21 -95.49, 4.61 -103.01, 1.63 -113.58" stroke="#1e1e1e" stroke-width="2" fill="none"></path></g></g><mask></mask></svg>