<svg version="1.1" xmlns="http://www.w3.org/2000/svg" viewBox="0 0 418.7401752558842 477.39095050465403" width="418.7401752558842" height="477.39095050465403" filter="invert(93%) hue-rotate(180deg)">
  <!-- svg-source:excalidraw -->
  
  <defs>
    <style class="style-fonts">
      @font-face {
        font-family: "Virgil";
        src: url("https://excalidraw.com/Virgil.woff2");
      }
      @font-face {
        font-family: "Cascadia";
        src: url("https://excalidraw.com/Cascadia.woff2");
      }
      @font-face {
        font-family: "Assistant";
        src: url("https://excalidraw.com/Assistant-Regular.woff2");
      }
    </style>
    
  </defs>
  <rect x="0" y="0" width="418.7401752558842" height="477.39095050465403" fill="#ffffff"></rect><g stroke-linecap="round" transform="translate(10 36.33289577373489) rotate(0 163.43569007394046 215.52902736545957)"><path d="M32 0 C114 1.92, 198.29 2.6, 294.87 0 M32 0 C100.36 0.14, 168.31 -0.25, 294.87 0 M294.87 0 C314.87 0.38, 326.03 9.81, 326.87 32 M294.87 0 C316.45 -0.61, 327.58 8.65, 326.87 32 M326.87 32 C326.23 167.51, 324.89 305.6, 326.87 399.06 M326.87 32 C329.19 131.92, 328.45 231.21, 326.87 399.06 M326.87 399.06 C326.85 419.21, 316.92 431.33, 294.87 431.06 M326.87 399.06 C327.6 421.85, 314.52 432.82, 294.87 431.06 M294.87 431.06 C226.67 431.81, 154.61 429.38, 32 431.06 M294.87 431.06 C200.84 429.72, 107.84 430.49, 32 431.06 M32 431.06 C9.87 430.85, -1.6 422.11, 0 399.06 M32 431.06 C9.69 430.7, 0.22 419.63, 0 399.06 M0 399.06 C-1.75 286.98, -1.4 173.38, 0 32 M0 399.06 C1.98 286.73, 1.97 174.08, 0 32 M0 32 C0.74 9.93, 11.11 1.69, 32 0 M0 32 C1.31 9.4, 10.02 -0.61, 32 0" stroke="#1e1e1e" stroke-width="2" fill="none"></path></g><g transform="translate(141.66447886867354 10) rotate(0 33.989967346191406 12.5)"><text x="0" y="0" font-family="Virgil, Segoe UI Emoji" font-size="20px" fill="#1e1e1e" text-anchor="start" style="white-space: pre;" direction="ltr" dominant-baseline="text-before-edge">Memory</text></g><g stroke-linecap="round" transform="translate(29.463444702325432 49.499343660602335) rotate(0 146.54828952339335 50.08974739569112)"><path d="M25.04 0 C81.05 1.87, 134.1 0.33, 268.05 0 M25.04 0 C103.44 0.24, 181.94 0.35, 268.05 0 M268.05 0 C284.57 1.05, 294.8 8.79, 293.1 25.04 M268.05 0 C285.04 -2.23, 290.99 6.13, 293.1 25.04 M293.1 25.04 C293.11 45.58, 292.22 64.36, 293.1 75.13 M293.1 25.04 C293 38.77, 292.59 52.34, 293.1 75.13 M293.1 75.13 C294.52 90.39, 283.57 99.41, 268.05 100.18 M293.1 75.13 C294.2 90.64, 286.8 99.44, 268.05 100.18 M268.05 100.18 C199.2 99.55, 128 101.06, 25.04 100.18 M268.05 100.18 C202.24 99.25, 135.73 99.22, 25.04 100.18 M25.04 100.18 C9 100.11, -0.8 93.26, 0 75.13 M25.04 100.18 C9.78 100.61, -1.16 93.84, 0 75.13 M0 75.13 C-1.52 59.41, 0.27 42.68, 0 25.04 M0 75.13 C0.58 63.28, -0.19 52.07, 0 25.04 M0 25.04 C-1.08 10.11, 8.26 1.39, 25.04 0 M0 25.04 C1.71 10.33, 7.41 -1.07, 25.04 0" stroke="#1e1e1e" stroke-width="2" fill="none"></path></g><g transform="translate(48.491852023570345 87.08909105629346) rotate(0 127.51988220214844 12.5)"><text x="127.51988220214844" y="0" font-family="Virgil, Segoe UI Emoji" font-size="20px" fill="#1e1e1e" text-anchor="middle" style="white-space: pre;" direction="ltr" dominant-baseline="text-before-edge">Foo{ID: 23, Bar: "World"}</text></g><g stroke-linecap="round" transform="translate(31.753261726128812 161.9866049549246) rotate(0 146.54828952339335 50.08974739569112)"><path d="M25.04 0 C93.08 -1.25, 160.91 0.37, 268.05 0 M25.04 0 C105.7 -1.3, 187.13 0, 268.05 0 M268.05 0 C286.61 1.32, 294.56 8.26, 293.1 25.04 M268.05 0 C284.67 1.45, 294.38 10.2, 293.1 25.04 M293.1 25.04 C291.57 43.13, 291.7 63.22, 293.1 75.13 M293.1 25.04 C292.39 44.75, 293.44 65.18, 293.1 75.13 M293.1 75.13 C293.05 91.11, 286.73 98.98, 268.05 100.18 M293.1 75.13 C290.8 93.38, 283.91 100.9, 268.05 100.18 M268.05 100.18 C179.34 101.45, 94.28 101.6, 25.04 100.18 M268.05 100.18 C209.68 101.01, 150.5 101.4, 25.04 100.18 M25.04 100.18 C9.71 99.76, -0.63 91.23, 0 75.13 M25.04 100.18 C7.65 102.39, -0.02 93.42, 0 75.13 M0 75.13 C0.61 55.38, 1.32 36.35, 0 25.04 M0 75.13 C1.2 64.87, 0.49 52.44, 0 25.04 M0 25.04 C1.13 8.22, 9.22 -0.74, 25.04 0 M0 25.04 C0.97 8.47, 9.32 -2.02, 25.04 0" stroke="#1e1e1e" stroke-width="2" fill="none"></path></g><g transform="translate(143.87158909131904 199.5763523506157) rotate(0 34.429962158203125 12.5)"><text x="34.429962158203125" y="0" font-family="Virgil, Segoe UI Emoji" font-size="20px" fill="#1e1e1e" text-anchor="middle" style="white-space: pre;" direction="ltr" dominant-baseline="text-before-edge">Pointer</text></g><g stroke-linecap="round"><g transform="translate(327.139657796718 208.64162681491234) rotate(0 39.49934366060211 -53.8107000593709)"><path d="M0.87 -0.07 C14.17 -9.39, 79.58 -38.47, 79.32 -56.44 C79.06 -74.41, 12.57 -99.47, -0.67 -107.89 M-0.13 -1.16 C13.58 -10.81, 81.78 -40.84, 81.6 -58.44 C81.42 -76.03, 12.3 -98.25, -1.19 -106.72" stroke="#1e1e1e" stroke-width="2" fill="none"></path></g><g transform="translate(327.139657796718 208.64162681491234) rotate(0 39.49934366060211 -53.8107000593709)"><path d="M23.73 -104.76 C17.06 -106.47, 11.01 -104.82, -1.19 -106.72 M23.73 -104.76 C15.96 -104.73, 10.02 -105.22, -1.19 -106.72" stroke="#1e1e1e" stroke-width="2" fill="none"></path></g><g transform="translate(327.139657796718 208.64162681491234) rotate(0 39.49934366060211 -53.8107000593709)"><path d="M16.65 -89.2 C11.91 -95.05, 7.72 -97.51, -1.19 -106.72 M16.65 -89.2 C10.71 -93.52, 6.73 -98.33, -1.19 -106.72" stroke="#1e1e1e" stroke-width="2" fill="none"></path></g></g><mask></mask></svg>