<svg version="1.1" xmlns="http://www.w3.org/2000/svg" viewBox="0 0 970.7008293877782 498.69571611686706" width="1941.4016587755564" height="997.3914322337341" filter="invert(93%) hue-rotate(180deg)">
  <!-- svg-source:excalidraw -->
  
  <defs>
    <style class="style-fonts">
      @font-face {
        font-family: "Virgil";
        src: url("https://excalidraw.com/Virgil.woff2");
      }
      @font-face {
        font-family: "Cascadia";
        src: url("https://excalidraw.com/Cascadia.woff2");
      }
      @font-face {
        font-family: "Assistant";
        src: url("https://excalidraw.com/Assistant-Regular.woff2");
      }
    </style>
    
  </defs>
  <rect x="0" y="0" width="970.7008293877782" height="498.69571611686706" fill="#ffffff"></rect><g stroke-linecap="round" transform="translate(217.97406053689997 10) rotate(0 259.9621184094233 65.84950259416132)"><path d="M32 0 C151.8 0.15, 272.18 1.23, 487.92 0 M32 0 C180.19 -1.45, 327.89 -1.51, 487.92 0 M487.92 0 C510.95 -1.58, 519.11 11.9, 519.92 32 M487.92 0 C511.33 -0.32, 519.21 10.13, 519.92 32 M519.92 32 C518.44 46.78, 521.6 62.88, 519.92 99.7 M519.92 32 C518.61 47.43, 518.97 60.96, 519.92 99.7 M519.92 99.7 C518.73 121.65, 508.07 132.23, 487.92 131.7 M519.92 99.7 C521.62 120.5, 511.5 133.13, 487.92 131.7 M487.92 131.7 C395.53 133.03, 304.13 133.6, 32 131.7 M487.92 131.7 C350.32 130.18, 212.51 130.56, 32 131.7 M32 131.7 C11.15 129.77, -0.07 121.21, 0 99.7 M32 131.7 C9.04 130.39, 0.29 122.65, 0 99.7 M0 99.7 C0.61 82.41, 1.07 62.68, 0 32 M0 99.7 C0.96 74.91, -0.54 51.42, 0 32 M0 32 C1.73 9.91, 9.63 -1.76, 32 0 M0 32 C1.65 12.91, 9.38 1.13, 32 0" stroke="#1e1e1e" stroke-width="2" fill="none"></path></g><g transform="translate(449.00620152933107 63.34950259416132) rotate(0 28.929977416992188 12.5)"><text x="28.929977416992188" y="0" font-family="Virgil, Segoe UI Emoji" font-size="20px" fill="#1e1e1e" text-anchor="middle" style="white-space: pre;" direction="ltr" dominant-baseline="text-before-edge">Image</text></g><g stroke-linecap="round" transform="translate(10 291.69948321856873) rotate(0 142.45854235886623 97.22002575867396)"><path d="M32 0 C84.36 -0.61, 140.38 -0.86, 252.92 0 M32 0 C78.71 0.05, 124.02 0.9, 252.92 0 M252.92 0 C274.38 -0.55, 284.96 11.71, 284.92 32 M252.92 0 C273.96 0.13, 284.16 9.38, 284.92 32 M284.92 32 C287.6 66.55, 286.28 101.61, 284.92 162.44 M284.92 32 C285.51 75.39, 285.85 119.94, 284.92 162.44 M284.92 162.44 C286.21 183.74, 272.52 193.15, 252.92 194.44 M284.92 162.44 C286.17 183.91, 273.21 193.83, 252.92 194.44 M252.92 194.44 C207.09 193.82, 162.54 194.16, 32 194.44 M252.92 194.44 C189.98 195.44, 127.74 195.36, 32 194.44 M32 194.44 C11.2 193.91, -0.4 182.24, 0 162.44 M32 194.44 C9.38 193.38, -1.97 185.28, 0 162.44 M0 162.44 C0.33 123.54, -0.1 83.48, 0 32 M0 162.44 C1.57 127.89, 0.82 94.25, 0 32 M0 32 C-0.03 12, 10.67 -0.15, 32 0 M0 32 C-0.69 9.83, 10.61 2.3, 32 0" stroke="#1e1e1e" stroke-width="2" fill="none"></path></g><g transform="translate(102.68857623337794 376.41950897724246) rotate(0 49.76996612548828 12.5)"><text x="49.76996612548828" y="0" font-family="Virgil, Segoe UI Emoji" font-size="20px" fill="#1e1e1e" text-anchor="middle" style="white-space: pre;" direction="ltr" dominant-baseline="text-before-edge">JPGImage</text></g><g stroke-linecap="round" transform="translate(342.41490766231755 293.6182564327919) rotate(0 142.45854235886623 97.22002575867396)"><path d="M32 0 C76.67 -1.17, 123.51 2.03, 252.92 0 M32 0 C106.46 0.9, 182.71 1.3, 252.92 0 M252.92 0 C273.66 -0.85, 286.73 12.45, 284.92 32 M252.92 0 C275.99 2.02, 285.45 10.04, 284.92 32 M284.92 32 C284.04 70.47, 285.54 109.46, 284.92 162.44 M284.92 32 C284.66 68.05, 285.98 104.82, 284.92 162.44 M284.92 162.44 C283.54 182.72, 276 193.99, 252.92 194.44 M284.92 162.44 C284.07 183.06, 275.58 195.61, 252.92 194.44 M252.92 194.44 C186.91 194.09, 122.66 196.83, 32 194.44 M252.92 194.44 C194.1 194.6, 135.02 194.81, 32 194.44 M32 194.44 C12.55 195.36, 0.79 184.15, 0 162.44 M32 194.44 C12.92 196.27, -1.05 184.53, 0 162.44 M0 162.44 C1.19 114.9, 1.3 68.09, 0 32 M0 162.44 C-1.22 131.2, -0.61 98.81, 0 32 M0 32 C-0.77 11.56, 10.83 -0.62, 32 0 M0 32 C0.63 12.1, 10.07 1.61, 32 0" stroke="#1e1e1e" stroke-width="2" fill="none"></path></g><g transform="translate(435.0034854215744 378.3382821914656) rotate(0 49.869964599609375 12.5)"><text x="49.869964599609375" y="0" font-family="Virgil, Segoe UI Emoji" font-size="20px" fill="#1e1e1e" text-anchor="middle" style="white-space: pre;" direction="ltr" dominant-baseline="text-before-edge">PNGImage</text></g><g stroke-linecap="round" transform="translate(675.7837446700457 294.25566459951915) rotate(0 142.45854235886623 97.22002575867396)"><path d="M32 0 C88.54 0.79, 143.74 -0.78, 252.92 0 M32 0 C119.09 -1.25, 204.43 -1.46, 252.92 0 M252.92 0 C272.85 1.83, 284.95 10.28, 284.92 32 M252.92 0 C276.01 -0.28, 284.51 11.56, 284.92 32 M284.92 32 C285.04 79.16, 282.55 128.4, 284.92 162.44 M284.92 32 C284.32 83.1, 285.14 132.96, 284.92 162.44 M284.92 162.44 C285.23 185.03, 272.4 192.64, 252.92 194.44 M284.92 162.44 C283 185.35, 273.48 195.17, 252.92 194.44 M252.92 194.44 C184.91 194.96, 118.86 195.3, 32 194.44 M252.92 194.44 C178.56 195.92, 103.1 196.9, 32 194.44 M32 194.44 C9.51 193.02, 0.44 184.19, 0 162.44 M32 194.44 C11.29 196.23, -1.28 184.81, 0 162.44 M0 162.44 C0.78 125.82, 0.05 89.68, 0 32 M0 162.44 C1.03 121.96, 1.1 81.3, 0 32 M0 32 C1.86 11.96, 10.26 1.76, 32 0 M0 32 C0.4 11.09, 8.83 0.83, 32 0" stroke="#1e1e1e" stroke-width="2" fill="none"></path></g><g transform="translate(767.7723239551817 378.97569035819333) rotate(0 50.46996307373047 12.5)"><text x="50.46996307373047" y="0" font-family="Virgil, Segoe UI Emoji" font-size="20px" fill="#1e1e1e" text-anchor="middle" style="white-space: pre;" direction="ltr" dominant-baseline="text-before-edge">BMPImage</text></g><g stroke-linecap="round"><g transform="translate(476.25097653292073 152.38214069504693) rotate(0 -159.57469795923805 64.5332110717759)"><path d="M0.16 1.18 C-53.35 22.43, -266.78 106.81, -320.1 127.94 M-1.22 0.76 C-54.43 22.07, -264.61 107.56, -317.89 128.89" stroke="#1e1e1e" stroke-width="2" fill="none"></path></g><g transform="translate(476.25097653292073 152.38214069504693) rotate(0 -159.57469795923805 64.5332110717759)"><path d="M-299.31 112.16 C-304.3 116.92, -315.17 123.77, -317.89 128.89 M-299.31 112.16 C-304.12 115.8, -308.13 118.48, -317.89 128.89" stroke="#1e1e1e" stroke-width="2" fill="none"></path></g><g transform="translate(476.25097653292073 152.38214069504693) rotate(0 -159.57469795923805 64.5332110717759)"><path d="M-292.91 128.02 C-300.37 126.79, -313.67 127.64, -317.89 128.89 M-292.91 128.02 C-298.95 128.3, -304.3 127.67, -317.89 128.89" stroke="#1e1e1e" stroke-width="2" fill="none"></path></g></g><mask></mask><g stroke-linecap="round"><g transform="translate(479.3768960355012 152.80125839371703) rotate(0 2.0104552108075495 64.1119104684251)"><path d="M0.91 1.02 C1.7 22.6, 3.14 107.62, 3.82 128.75 M-0.06 0.52 C0.62 21.8, 1.96 105.51, 2.76 126.9" stroke="#1e1e1e" stroke-width="2" fill="none"></path></g><g transform="translate(479.3768960355012 152.80125839371703) rotate(0 2.0104552108075495 64.1119104684251)"><path d="M-6.39 103.63 C-2.74 108.51, -1.5 115.75, 2.76 126.9 M-6.39 103.63 C-3.28 109.41, -0.88 114.94, 2.76 126.9" stroke="#1e1e1e" stroke-width="2" fill="none"></path></g><g transform="translate(479.3768960355012 152.80125839371703) rotate(0 2.0104552108075495 64.1119104684251)"><path d="M10.71 103.19 C10.46 108.31, 7.82 115.65, 2.76 126.9 M10.71 103.19 C9.33 109.11, 7.23 114.76, 2.76 126.9" stroke="#1e1e1e" stroke-width="2" fill="none"></path></g></g><mask></mask><g stroke-linecap="round"><g transform="translate(484.5984040314315 154.09353796461573) rotate(0 166.56872455579366 61.640862370016976)"><path d="M1.12 -1.11 C56.51 19.38, 277.42 102.29, 332.74 123.21 M0.24 0.93 C55.41 21.59, 276.25 104.42, 331.58 124.72" stroke="#1e1e1e" stroke-width="2" fill="none"></path></g><g transform="translate(484.5984040314315 154.09353796461573) rotate(0 166.56872455579366 61.640862370016976)"><path d="M306.58 124.55 C313.03 123.7, 323.07 124.27, 331.58 124.72 M306.58 124.55 C316.41 125.24, 325.91 124.99, 331.58 124.72" stroke="#1e1e1e" stroke-width="2" fill="none"></path></g><g transform="translate(484.5984040314315 154.09353796461573) rotate(0 166.56872455579366 61.640862370016976)"><path d="M312.53 108.52 C317.05 113.05, 325.11 118.94, 331.58 124.72 M312.53 108.52 C320.06 115.63, 327.19 121.76, 331.58 124.72" stroke="#1e1e1e" stroke-width="2" fill="none"></path></g></g><mask></mask></svg>